<?xml version="1.0" standalone="no"?>
<!DOCTYPE svg PUBLIC "-//W3C//DTD SVG 20010904//EN"
 "http://www.w3.org/TR/2001/REC-SVG-20010904/DTD/svg10.dtd">
<svg version="1.0" xmlns="http://www.w3.org/2000/svg"
 width="700.000000pt" height="700.000000pt" viewBox="0 0 700.000000 700.000000"
 preserveAspectRatio="xMidYMid meet">
<metadata>
Created by potrace 1.14, written by Peter Selinger 2001-2017
</metadata>
<g transform="translate(0.000000,700.000000) scale(0.100000,-0.100000)"
fill="#000000" stroke="none">
<path d="M3240 6994 c-19 -2 -80 -9 -135 -15 -1440 -154 -2659 -1226 -3005
-2642 -74 -300 -95 -486 -95 -837 0 -351 21 -537 95 -837 355 -1450 1602
-2518 3099 -2654 170 -15 592 -6 750 16 792 111 1474 447 2026 1000 589 588
940 1340 1016 2174 25 282 1 705 -56 986 -273 1335 -1280 2389 -2593 2715
-283 70 -459 91 -792 95 -151 2 -291 1 -310 -1z m1483 -1015 c121 -39 218
-138 257 -258 20 -64 21 -81 18 -561 l-3 -495 -32 -66 c-40 -80 -120 -159
-200 -197 l-58 -27 -1185 -3 -1185 -3 -60 22 c-137 49 -224 144 -261 284 -21
78 -20 939 2 1020 16 66 50 128 94 178 36 41 129 97 188 113 36 10 309 13
1204 13 1149 1 1158 1 1221 -20z m768 -1213 c53 -122 59 -140 46 -155 -77 -87
-57 -229 42 -293 41 -26 53 -29 112 -26 108 6 175 67 186 170 5 53 -11 108
-47 158 -9 12 2 46 47 149 32 74 64 136 71 139 21 7 156 -138 185 -198 56
-117 69 -222 42 -339 -54 -228 -257 -390 -490 -391 -143 0 -252 46 -356 151
-185 185 -199 462 -36 668 38 48 116 113 129 109 5 -2 36 -66 69 -142z m-728
-858 c80 -38 160 -117 200 -197 l32 -66 0 -585 0 -585 -31 -66 c-56 -118 -162
-201 -292 -228 -70 -15 -2255 -16 -2332 -1 -164 31 -295 158 -329 318 -17 82
-15 1072 3 1137 36 137 128 238 259 286 50 18 102 18 1242 16 l1190 -2 58 -27z
m-3315 -307 c81 -42 132 -127 132 -221 0 -146 -102 -251 -243 -252 -72 0 -119
17 -171 62 -179 157 -50 456 187 435 31 -2 74 -13 95 -24z m-13 -756 c100 -21
185 -66 253 -134 199 -200 202 -517 6 -713 -52 -52 -100 -87 -107 -77 -2 2
-30 67 -64 144 l-60 140 23 28 c85 102 29 268 -102 302 -133 34 -253 -65 -242
-200 4 -47 13 -67 52 -120 6 -8 -13 -63 -54 -158 l-64 -147 -35 27 c-142 104
-211 240 -211 413 0 260 177 463 440 503 52 8 97 6 165 -8z m3253 -1114 c66
-30 144 -113 166 -177 52 -153 -16 -318 -159 -386 l-60 -28 -1125 0 -1125 0
-60 29 c-74 34 -137 103 -161 173 -22 67 -16 187 13 243 41 78 124 144 210
164 22 5 518 9 1143 8 l1105 -2 53 -24z"/>
<path d="M2682 5714 c-243 -65 -411 -283 -412 -534 0 -239 167 -456 405 -526
79 -22 211 -23 290 0 196 57 348 221 390 421 18 88 18 132 0 220 -42 201 -203
368 -402 420 -71 19 -201 18 -271 -1z"/>
<path d="M4030 5712 c-131 -44 -243 -128 -311 -233 -104 -163 -111 -384 -16
-562 37 -71 125 -164 191 -202 174 -102 356 -110 534 -24 192 92 306 277 306
494 0 232 -143 438 -361 517 -82 31 -265 36 -343 10z"/>
</g>
</svg>
